<svg width="175" height="50" viewBox="0 0 175 50" fill="none" xmlns="http://www.w3.org/2000/svg">
<path d="M115.55 35.8656V15.2767H119.971V35.8656H115.55Z" fill="#222222"/>
<path d="M85.9643 35.95C84.1804 35.95 82.6679 35.6494 81.427 35.0483C80.186 34.4278 79.1292 33.6328 78.2566 32.6632L81.1652 29.7256C82.5419 31.2768 84.2386 32.0524 86.2552 32.0524C87.3411 32.0524 88.1458 31.8295 88.6693 31.3835C89.1929 30.9375 89.4546 30.3461 89.4546 29.6092C89.4546 29.0469 89.2995 28.5815 88.9893 28.2131C88.679 27.8253 88.0488 27.5635 87.0987 27.4278L85.0918 27.166C82.9394 26.8945 81.3591 26.245 80.3508 25.2173C79.3619 24.1896 78.8674 22.8225 78.8674 21.1162C78.8674 20.2048 79.0419 19.371 79.3909 18.6148C79.74 17.8585 80.2344 17.209 80.8743 16.666C81.5336 16.1231 82.3286 15.7062 83.2594 15.4153C84.2095 15.1051 85.2857 14.95 86.4879 14.95C88.0197 14.95 89.3674 15.1923 90.5308 15.6771C91.6943 16.1619 92.6929 16.8696 93.5267 17.8004L90.589 20.7671C90.1042 20.2048 89.5128 19.7491 88.8148 19.4001C88.1361 19.0317 87.2732 18.8475 86.2261 18.8475C85.2372 18.8475 84.5004 19.022 84.0156 19.371C83.5308 19.72 83.2884 20.2048 83.2884 20.8253C83.2884 21.5234 83.4727 22.0275 83.8411 22.3378C84.2289 22.648 84.8494 22.871 85.7026 23.0067L87.7095 23.3267C89.8037 23.6563 91.3549 24.3059 92.3632 25.2754C93.3715 26.2256 93.8757 27.5829 93.8757 29.3475C93.8757 30.317 93.7012 31.209 93.3522 32.0234C93.0031 32.8378 92.4893 33.5358 91.8106 34.1175C91.1513 34.6993 90.3272 35.1549 89.3383 35.4846C88.3494 35.7948 87.2247 35.95 85.9643 35.95Z" fill="#222222"/>
<path d="M61.1648 35.8656V15.299H74.8907V19.1984H65.4133V23.4469H73.5835V27.3686H65.4446V31.9439H74.8907V35.8656H61.1648Z" fill="#222222"/>
<path d="M100.94 32.223C100.63 31.4474 100.474 30.5942 100.474 29.6635V19.1984H96.5528V15.299H110.932V19.1984H104.896V29.4135C104.896 30.286 105.128 30.9259 105.594 31.3331C106.04 31.7403 106.583 31.9439 107.222 31.9439H110.932V35.8656L107.164 35.8587C106.117 35.8587 105.186 35.7133 104.372 35.4225C103.538 35.1122 102.83 34.6953 102.249 34.1718C101.667 33.6288 101.231 32.9792 100.94 32.223Z" fill="#222222"/>
<path d="M47.5309 32.223C47.2207 31.4474 47.0655 30.5942 47.0655 29.6635V19.1984H42V15.299H57.5234V19.1984H51.4866V29.4599C51.4866 30.3324 51.7193 30.9723 52.1846 31.3795C52.6306 31.7867 53.1736 31.9439 53.8135 31.9439H57.5234V35.8656L53.7553 35.8587C52.7082 35.8587 51.7774 35.7133 50.963 35.4225C50.1292 35.1122 49.4215 34.6953 48.8398 34.1718C48.258 33.6288 47.8218 32.9792 47.5309 32.223Z" fill="#222222"/>
<path d="M128.747 21.9083H128.834L136.338 35.8656H141.255V15.2767H137.007V28.9471H136.92L129.416 15.2767H124.588V35.8656H128.747V21.9083Z" fill="#222222"/>
<path fill-rule="evenodd" clip-rule="evenodd" d="M144.745 23.2111C144.164 21.7153 143.981 20.1604 143.981 18.1865V15.2999L148.38 15.3V18.1865C148.38 19.8958 148.543 20.8389 148.846 21.6187C149.164 22.4362 149.697 23.246 150.765 24.635C151.114 25.0882 151.432 25.5258 151.72 25.9579C152.009 25.5258 152.327 25.0882 152.675 24.635C153.743 23.246 154.277 22.4362 154.594 21.6187C154.897 20.8389 155.061 19.8958 155.061 18.1865V15.3L159.46 15.2999V18.1865C159.46 20.1604 159.276 21.7153 158.696 23.2111C158.129 24.6692 157.243 25.9124 156.163 27.3165C155.104 28.6944 154.602 29.6042 154.32 30.5219C154.032 31.4624 153.921 32.5786 153.92 34.4758C153.92 34.4893 153.92 34.5029 153.92 34.5164V35.8304L149.521 35.8304L149.521 34.5164C149.521 34.5028 149.521 34.4893 149.521 34.4758C149.519 32.5786 149.409 31.4624 149.12 30.5219C148.839 29.6042 148.337 28.6944 147.277 27.3165C146.198 25.9124 145.311 24.6692 144.745 23.2111Z" fill="#222222"/>
<path fill-rule="evenodd" clip-rule="evenodd" d="M5.55172 9C2.48559 9 0 11.4856 0 14.5517V35.6483C0 38.7144 2.48559 41.2 5.55172 41.2H26.6483C29.7144 41.2 32.2 38.7144 32.2 35.6483V14.5517C32.2 11.4856 29.7144 9 26.6483 9H5.55172ZM8.66072 22.5462C9.64712 22.5462 10.5083 22.0103 10.9691 21.2137H14.7676V28.3248C14.7676 28.9572 14.8731 29.537 15.0839 30.064C15.2815 30.5779 15.578 31.0193 15.9733 31.3882C16.3685 31.744 16.8495 32.0273 17.416 32.2381C17.9694 32.4357 18.6019 32.5345 19.3134 32.5345L20.7856 32.5372C21.2461 33.3349 22.1079 33.8717 23.0952 33.8717C24.5669 33.8717 25.76 32.6786 25.76 31.2069C25.76 29.7352 24.5669 28.5421 23.0952 28.5421C22.1089 28.5421 21.2477 29.0779 20.7869 29.8744H19.3529C18.9181 29.8744 18.5492 29.7676 18.2461 29.4909C17.9299 29.2142 17.7718 28.7794 17.7718 28.1864V21.2137H20.7868C21.2476 22.0103 22.1088 22.5462 23.0952 22.5462C24.5669 22.5462 25.76 21.3531 25.76 19.8814C25.76 18.4096 24.5669 17.2165 23.0952 17.2165C22.1026 17.2165 21.2368 17.7592 20.7782 18.564H10.9777C10.5191 17.7592 9.65326 17.2165 8.66072 17.2165C7.18898 17.2165 5.99589 18.4096 5.99589 19.8814C5.99589 21.3531 7.18898 22.5462 8.66072 22.5462Z" fill="#00718C"/>
</svg>
